# xmcd
#
# Track frame offsets:
#	150
#	19850
#	37317
#	65050
#	87062
#	105632
#	125307
#	148370
#	167842
#	190355
#	211720
#	230300
#	248087
#	266942
#	283925
#
# Disc length: 4102 seconds
#
# Revision: 1
# Processed by: cddbd v1.5PL3 Copyright (c) Steve Scherf et al.
# Submitted via: CDex 1.50Beta5
#
DISCID=e510040f
DTITLE=Various Artist - TV-CF ソング・ブック
DYEAR=1900
DGENRE=
TTITLE0=夏を抱きしめて
TTITLE1=The Summer Vacation
TTITLE2=berangkat -ブランカ-
TTITLE3=はればれ
TTITLE4=違う、そうじゃない
TTITLE5=グッド・バイ・マイ・ラブ
TTITLE6=いつか逆転(サイケデリックヴァージョン)
TTITLE7=あなたが今ここにいる
TTITLE8=よろしく哀愁
TTITLE9=アリス
TTITLE10=ぜったいイチバン
TTITLE11=恋は最後のフェアリー・テール
TTITLE12=Street Life
TTITLE13=Kissが止まらない
TTITLE14=守ってあげる
EXTD=
EXTT0=
EXTT1=
EXTT2=
EXTT3=
EXTT4=
EXTT5=
EXTT6=
EXTT7=
EXTT8=
EXTT9=
EXTT10=
EXTT11=
EXTT12=
EXTT13=
EXTT14=
PLAYORDER=
